<svg width="28" height="29" viewBox="0 0 28 29" fill="none" xmlns="http://www.w3.org/2000/svg">
<path d="M21.1456 4.99573C20.1793 4.99573 19.5352 5.65499 19.5352 6.64388C19.5352 7.63276 20.3404 8.29202 21.1456 8.29202C22.1119 8.29202 22.7561 7.63276 22.7561 6.64388C22.7561 5.8198 22.1119 4.99573 21.1456 4.99573Z" fill="white"/>
<path d="M14.0608 7.14246C10.3568 7.14246 7.29688 10.2739 7.29688 14.0647C7.29688 17.8554 10.3568 20.9869 14.0608 20.9869C17.7649 20.9869 20.8248 17.8554 20.8248 14.0647C20.8248 10.2739 17.7649 7.14246 14.0608 7.14246ZM14.0608 18.5147C11.6451 18.5147 9.71258 16.5369 9.71258 14.0647C9.71258 11.5925 11.6451 9.61468 14.0608 9.61468C16.4765 9.61468 18.4091 11.5925 18.4091 14.0647C18.4091 16.5369 16.4765 18.5147 14.0608 18.5147Z" fill="white"/>
<path d="M19.3755 28.2381H8.42433C3.91502 28.2381 0.210938 24.4474 0.210938 19.8326V8.62516C0.210938 4.01034 3.91502 0.219604 8.42433 0.219604H19.3755C23.8848 0.219604 27.5889 4.01034 27.5889 8.62516V19.6677C27.7499 24.4474 24.0459 28.2381 19.3755 28.2381ZM8.42433 2.69183C5.20339 2.69183 2.78769 5.32886 2.78769 8.46034V19.6677C2.78769 22.964 5.36444 25.4363 8.42433 25.4363H19.3755C22.5964 25.4363 25.0121 22.7992 25.0121 19.6677V8.46034C25.0121 5.16405 22.4354 2.69183 19.3755 2.69183H8.42433Z" fill="white"/>
</svg>
