<svg width="27" height="22" viewBox="0 0 27 22" fill="none" xmlns="http://www.w3.org/2000/svg">
<path d="M25.8625 2.82242C25.0572 3.15205 24.091 3.48168 23.2857 3.6465C23.7689 3.6465 24.252 2.82242 24.5741 2.49279C24.8962 1.99835 25.2183 1.5039 25.3793 0.844643V0.67983H25.2183C24.252 1.17427 23.2857 1.66872 22.1584 1.83353C21.9973 1.83353 21.9974 1.83353 21.9974 1.83353C21.8363 1.66872 21.8363 1.66872 21.6753 1.5039C21.1921 1.17427 20.709 0.844644 20.2258 0.515014C19.5816 0.185385 18.7764 0.0205705 17.9712 0.185385C17.1659 0.185385 16.5218 0.515014 15.8776 0.844643C15.2334 1.17427 14.5892 1.66872 14.1061 2.32798C13.6229 2.98724 13.3008 3.6465 13.1398 4.47057C12.9787 5.29464 12.9787 5.9539 13.1398 6.77797C13.1398 6.94279 13.1398 6.94279 12.9787 6.94279C8.79151 6.28353 5.24848 4.8002 2.34964 1.5039C2.18859 1.33909 2.1886 1.33909 2.02755 1.5039C0.739174 3.48168 1.38336 6.44834 2.99383 7.93168C3.15487 8.09649 3.47697 8.26131 3.63802 8.59094C3.47697 8.59094 2.51068 8.42612 1.5444 7.93168C1.38336 7.93168 1.38336 7.93168 1.38336 8.09649C1.38336 8.26131 1.38336 8.42612 1.38336 8.75575C1.54441 10.7335 2.99382 12.5465 4.76534 13.2057C4.92639 13.3706 5.24848 13.3706 5.40953 13.3706C4.92639 13.5354 4.6043 13.5354 3.47697 13.3706C3.31593 13.3706 3.31592 13.3706 3.31592 13.5354C4.12115 16.0076 6.05372 16.6669 7.50314 17.1613C7.66419 17.1613 7.82523 17.1613 8.14732 17.1613C7.66418 17.8206 6.05372 18.4798 5.24848 18.6446C3.79906 19.1391 2.34963 19.3039 0.900214 19.1391C0.739167 19.1391 0.578125 19.1391 0.578125 19.1391V19.3039C0.900219 19.4687 1.22231 19.6335 1.5444 19.7983C2.51068 20.2928 3.47697 20.7872 4.44325 20.952C9.75779 22.4354 15.5555 21.2817 19.5816 17.3261C22.6415 14.1946 23.7689 9.90945 23.7689 5.45946C23.7689 5.29464 23.9299 5.12983 24.091 5.12983C24.8962 4.47057 25.5404 3.81131 26.1846 2.98724C25.8625 3.15205 25.8625 2.98724 25.8625 2.82242Z" fill="white"/>
</svg>
